<?xml version="1.0" encoding="UTF-8" standalone="no"?>
<!DOCTYPE svg PUBLIC "-//W3C//DTD SVG 1.1//EN" "http://www.w3.org/Graphics/SVG/1.1/DTD/svg11.dtd">
<svg class="w-full h-full" viewBox="0 0 129 129" xmlns="http://www.w3.org/2000/svg" role="img" aria-label="memrok Logogram 2025">
  <path d="M38.327,30.904c-0.861,-0.863 -1.345,-2.037 -1.345,-3.259c-0,-1.222 0.484,-2.396 1.345,-3.259l22.929,-23.035c0.859,-0.865 2.027,-1.351 3.244,-1.351c1.217,-0 2.385,0.486 3.244,1.351l22.929,23.035c0.861,0.863 1.345,2.037 1.345,3.259c0,1.222 -0.484,2.396 -1.345,3.259l-22.929,23.035c-0.859,0.864 -2.027,1.351 -3.244,1.351c-1.217,-0 -2.385,-0.487 -3.244,-1.351l-22.929,-23.035Zm29.417,44.157c-0.859,-0.864 -2.027,-1.351 -3.244,-1.351c-1.217,0 -2.385,0.487 -3.244,1.351l-22.929,23.035c-0.861,0.863 -1.345,2.037 -1.345,3.259c-0,1.222 0.484,2.396 1.345,3.259l22.929,23.035c0.859,0.865 2.027,1.351 3.244,1.351c1.217,0 2.385,-0.486 3.244,-1.351l22.929,-23.035c0.861,-0.863 1.345,-2.037 1.345,-3.259c0,-1.222 -0.484,-2.396 -1.345,-3.259l-22.929,-23.035Zm59.616,-13.82l-22.929,-23.035c-0.86,-0.865 -2.028,-1.351 -3.245,-1.351c-1.216,0 -2.384,0.486 -3.244,1.351l-22.929,23.035c-0.861,0.863 -1.345,2.037 -1.345,3.259c-0,1.222 0.484,2.396 1.345,3.259l22.929,23.035c0.86,0.865 2.028,1.351 3.244,1.351c1.217,-0 2.385,-0.486 3.245,-1.351l22.929,-23.035c0.861,-0.863 1.345,-2.037 1.345,-3.259c-0,-1.222 -0.484,-2.396 -1.345,-3.259Zm-73.373,-0l-22.929,-23.035c-0.86,-0.865 -2.028,-1.351 -3.244,-1.351c-1.217,0 -2.385,0.486 -3.245,1.351l-22.929,23.035c-0.861,0.863 -1.345,2.037 -1.345,3.259c0,1.222 0.484,2.396 1.345,3.259l22.929,23.035c0.86,0.865 2.028,1.351 3.245,1.351c1.216,-0 2.384,-0.486 3.244,-1.351l22.929,-23.035c0.861,-0.863 1.345,-2.037 1.345,-3.259c0,-1.222 -0.484,-2.396 -1.345,-3.259Z" fill="#615fff"/>
</svg>